<?xml version="1.0" encoding="UTF-8"?>
<svg version="1.1" xmlns="http://www.w3.org/2000/svg" width="512" height="512">
<path d="M0 0 C0.87197021 -0.00997513 1.74394043 -0.01995026 2.64233398 -0.03022766 C4.07308762 -0.03122467 4.07308762 -0.03122467 5.53274536 -0.03224182 C6.53952332 -0.04056534 7.54630127 -0.04888885 8.58358765 -0.0574646 C11.91970662 -0.08160742 15.25563026 -0.09034187 18.59182739 -0.09693909 C20.90726787 -0.10590191 23.22270773 -0.11502369 25.53814697 -0.1242981 C30.39541025 -0.14080213 35.25260448 -0.14849084 40.1098938 -0.15138245 C46.3367632 -0.15676866 52.56298463 -0.19445329 58.78967094 -0.24012661 C63.57318497 -0.26985465 68.35654215 -0.27710508 73.14014053 -0.2781086 C75.4358937 -0.28231907 77.73164698 -0.29478629 80.02730942 -0.31562614 C83.23794081 -0.34245215 86.4470595 -0.33774056 89.65774536 -0.32521057 C90.60753265 -0.34004486 91.55731995 -0.35487915 92.53588867 -0.37016296 C97.1720212 -0.31858477 99.07245674 -0.2521888 102.7913208 2.74911499 C103.4293161 3.58237808 104.0673114 4.41564117 104.72463989 5.27415466 C105.21963989 5.76915466 105.21963989 5.76915466 105.72463989 6.27415466 C105.82722016 8.9218323 105.86378396 11.54359563 105.85886097 14.19192123 C105.8612132 15.03576394 105.86356543 15.87960664 105.86598894 16.74902034 C105.872715 19.61359185 105.87221964 22.47811837 105.87181091 25.34269714 C105.8751073 27.40239763 105.87883238 29.46209746 105.88295239 31.52179646 C105.89300618 37.21067192 105.89669459 42.89953683 105.8993417 48.58841991 C105.90323479 54.71262247 105.91281378 60.8368166 105.92155457 66.96101379 C105.94041144 81.06532872 105.95057931 95.16964172 105.95901525 109.27396571 C105.96321834 116.24000573 105.96844078 123.20604489 105.97369978 130.17208418 C105.99159213 154.00570057 106.00658926 177.8393172 106.01401997 201.6729393 C106.01449473 203.16992182 106.01497062 204.66690434 106.01544763 206.16388686 C106.015684 206.90627543 106.01592038 207.64866401 106.01616392 208.41354921 C106.01736515 212.17502707 106.01858059 215.93650493 106.01980591 219.69798279 C106.02016613 220.81770979 106.02016613 220.81770979 106.02053364 221.96005753 C106.02842865 246.16935375 106.05186354 270.37860101 106.08436185 294.58787584 C106.11863769 320.16788731 106.13836904 345.74787012 106.14166421 371.32790494 C106.14208176 374.13450449 106.14256133 376.94110402 106.14308739 379.74770355 C106.14327217 380.78434099 106.14327217 380.78434099 106.1434607 381.8419206 C106.14579556 392.97751524 106.16147153 404.11305315 106.18192923 415.24862755 C106.20215666 426.43611928 106.20734501 437.62354369 106.1981586 448.81105658 C106.19359687 454.87540081 106.19560846 460.93956035 106.21492004 467.00387955 C106.23243124 472.55054159 106.2316526 478.09688256 106.21602275 483.64354745 C106.21362825 485.65503718 106.21806454 487.66654845 106.2298514 489.67800507 C106.24483841 492.40340699 106.23538987 495.12765171 106.21962452 497.85302353 C106.23495783 499.03615124 106.23495783 499.03615124 106.2506009 500.24318051 C106.20328907 503.96701107 105.85322706 506.07419558 103.81870335 509.23797536 C100.95155828 512.02586674 99.44907703 512.39955739 95.5695343 512.42805481 C94.69893875 512.43665527 93.8283432 512.44525574 92.93136597 512.45411682 C91.49521942 512.46050674 91.49521942 512.46050674 90.03005981 512.46702576 C89.02342789 512.47520325 88.01679596 512.48338074 86.97966003 512.49180603 C83.63814902 512.51668175 80.29668051 512.5331809 76.95510864 512.54759216 C75.24614127 512.55557768 75.24614127 512.55557768 73.50264931 512.56372452 C67.47338152 512.59046447 61.44413451 512.60983744 55.41482544 512.62425232 C49.18011488 512.6409099 42.94593191 512.68569517 36.71142101 512.73662376 C31.92363359 512.77024052 27.13597229 512.78182364 22.34807777 512.7874794 C20.04952267 512.79420634 17.75097627 512.80946557 15.45253563 512.83337021 C12.23705104 512.86490648 9.02300151 512.86507549 5.80740356 512.85765076 C4.85604523 512.87405609 3.90468689 512.89046143 2.92449951 512.90736389 C-1.67318303 512.86385611 -3.62365761 512.78645183 -7.34303284 509.86268616 C-10.53290598 505.58955541 -10.4183528 502.44277003 -10.40678787 497.264575 C-10.40884051 496.4229552 -10.41089314 495.5813354 -10.41300797 494.71421197 C-10.41871152 491.8632221 -10.41721662 489.01228002 -10.415802 486.1612854 C-10.41838372 484.1089716 -10.42139633 482.05665831 -10.4248054 480.00434572 C-10.43290139 474.34053122 -10.43466641 468.67672937 -10.43540287 463.01290977 C-10.43724892 456.91394767 -10.44479395 450.81499222 -10.45153809 444.71603394 C-10.46584988 430.67277572 -10.47165027 416.62952168 -10.47623003 402.58625792 C-10.47856433 395.64987975 -10.48216679 388.7135024 -10.48592541 381.77712487 C-10.49876204 358.04326472 -10.50948134 334.30940504 -10.51292801 310.5755415 C-10.51314964 309.08509468 -10.51337143 307.59464786 -10.51359336 306.10420104 C-10.513814 304.61010952 -10.51403449 303.116018 -10.51425481 301.62192649 C-10.51469737 298.62441075 -10.51514448 295.62689501 -10.51559448 292.62937927 C-10.51570387 291.88616718 -10.51581326 291.14295509 -10.51592597 290.37722141 C-10.51955763 266.27162146 -10.53548123 242.16605155 -10.55878485 218.06046311 C-10.58336539 192.58752979 -10.59710001 167.11461366 -10.59829593 141.64166814 C-10.59846739 138.84687984 -10.59868282 136.05209154 -10.59893036 133.25730324 C-10.59898613 132.56912441 -10.5990419 131.88094559 -10.59909935 131.17191286 C-10.60025133 120.08380661 -10.61128573 108.99573112 -10.62581741 97.90763526 C-10.64016394 86.7684403 -10.64317677 75.62928436 -10.63537744 64.49007913 C-10.63145842 58.4520875 -10.63246131 52.4141997 -10.64643478 46.3762207 C-10.6590989 40.85369908 -10.65804253 35.3313601 -10.64584407 29.808839 C-10.64387401 27.80612956 -10.64702527 25.8034075 -10.65568843 23.80071583 C-10.66668693 21.08733834 -10.65936018 18.37461619 -10.64729691 15.66125774 C-10.6548921 14.87600048 -10.66248729 14.09074321 -10.67031264 13.28169027 C-10.62672076 8.76829934 -10.10194086 5.84217862 -7.27536011 2.27415466 C-4.17855526 0.2096181 -3.50730639 0.02152745 0 0 Z " fill="#000000" transform="translate(393.2753601074219,-0.2741546630859375)"/>
<path d="M0 0 C0.8383136 -0.00571014 1.6766272 -0.01142029 2.54034424 -0.01730347 C3.91499344 -0.01898026 3.91499344 -0.01898026 5.31741333 -0.02069092 C6.285177 -0.02565582 7.25294067 -0.03062073 8.25003052 -0.03573608 C11.45625516 -0.050359 14.66243033 -0.05715963 17.86868286 -0.06268311 C20.09444175 -0.06843406 22.32020062 -0.0741918 24.54595947 -0.07995605 C29.21489696 -0.09046614 33.88381723 -0.09630889 38.55276489 -0.09979248 C44.53732014 -0.10527991 50.52164818 -0.12931339 56.50613213 -0.15776443 C61.10433621 -0.17638074 65.70248544 -0.18159586 70.30072403 -0.18312836 C72.50714486 -0.18615723 74.71356467 -0.19419364 76.91994858 -0.20731354 C80.0057382 -0.22435412 83.09097084 -0.2224986 86.17678833 -0.21600342 C87.08917267 -0.2252182 88.00155701 -0.23443298 88.94158936 -0.243927 C93.73348862 -0.2123058 97.03694405 -0.04688281 100.87649536 3.14044189 C103.93850101 6.44124885 104.25254816 8.7122609 104.2568121 13.16283321 C104.26525204 14.40431934 104.27369198 15.64580547 104.28238767 16.92491239 C104.27659225 18.30493851 104.27051121 19.68496344 104.26417542 21.06498718 C104.26834691 22.52918423 104.27382341 23.99337805 104.28049523 25.45756584 C104.29499291 29.48649821 104.29069171 33.51522677 104.28332841 37.5441705 C104.27860969 41.88713275 104.29109507 46.23005007 104.30134583 50.57299805 C104.31856464 59.08325754 104.31936747 67.59344331 104.31413292 76.10371571 C104.31009574 83.01910833 104.31152939 89.93447911 104.31688118 96.84987068 C104.3176296 97.83313835 104.31837802 98.81640601 104.31914913 99.82946967 C104.32068056 101.82680988 104.32221891 103.82415009 104.32376409 105.8214903 C104.33750027 124.56309186 104.33204358 143.3046517 104.32057888 162.04625232 C104.31064515 179.20158963 104.32358762 196.35681911 104.34751307 213.51213979 C104.37188064 231.116765 104.38151773 248.72133993 104.37486035 266.32598168 C104.37136293 276.21385303 104.37363457 286.10164142 104.39111137 295.98950005 C104.40580409 304.40680267 104.40650728 312.82396392 104.38904046 321.24126368 C104.38050386 325.5375898 104.37844543 329.83366307 104.39369202 334.12997627 C104.40747038 338.06115964 104.40286513 341.99187189 104.38345278 345.92302752 C104.37967127 347.34694302 104.3826763 348.77089563 104.39306443 350.19477826 C104.40616289 352.12721828 104.39231094 354.05978515 104.37706661 355.99220943 C104.37695928 357.06654828 104.37685194 358.14088713 104.37674135 359.24778169 C103.75313589 362.85376501 102.38742631 364.52814714 99.87649536 367.14044189 C97.581694 368.28784258 96.27374383 368.27559357 93.72138977 368.29434204 C92.85079422 368.3029425 91.98019867 368.31154297 91.08322144 368.32040405 C89.64707489 368.32679398 89.64707489 368.32679398 88.18191528 368.33331299 C87.17528336 368.34149048 86.16865143 368.34966797 85.1315155 368.35809326 C81.79000448 368.38296898 78.44853598 368.39946813 75.10696411 368.41387939 C73.96765253 368.41920307 72.82834095 368.42452675 71.65450478 368.43001175 C65.62523699 368.4567517 59.59598998 368.47612467 53.56668091 368.49053955 C47.33197034 368.50719714 41.09778737 368.5519824 34.86327648 368.602911 C30.07548905 368.63652776 25.28782776 368.64811088 20.49993324 368.65376663 C18.20137814 368.66049357 15.90283174 368.6757528 13.6043911 368.69965744 C10.38890651 368.73119371 7.17485698 368.73136272 3.95925903 368.72393799 C3.0079007 368.74034332 2.05654236 368.75674866 1.07635498 368.77365112 C-3.56482823 368.72973169 -5.46727717 368.66966591 -9.19117737 365.66647339 C-9.82884537 364.832883 -10.46651337 363.9992926 -11.12350464 363.14044189 C-11.45350464 362.81044189 -11.78350464 362.48044189 -12.12350464 362.14044189 C-12.22564276 360.25917402 -12.25643351 358.37402143 -12.26051903 356.48998737 C-12.26559357 355.25509109 -12.27066811 354.0201948 -12.27589643 352.74787742 C-12.2764982 351.35971475 -12.27699725 349.97155203 -12.27740479 348.58338928 C-12.28141674 347.12249706 -12.28585451 345.66160595 -12.29068434 344.2007162 C-12.30268572 340.16700133 -12.30830653 336.13329844 -12.3128655 332.0995692 C-12.31880822 327.7565468 -12.33042144 323.41353882 -12.34115601 319.07052612 C-12.36571185 308.57175515 -12.38031246 298.07297938 -12.39321607 287.5741885 C-12.39692589 284.61045116 -12.4008993 281.6467143 -12.40496874 278.68297744 C-12.43020473 260.29213187 -12.45226541 241.90128559 -12.46469688 223.51042652 C-12.46762676 219.24769399 -12.47058839 214.98496148 -12.47360229 210.722229 C-12.47434835 209.66270012 -12.4750944 208.60317124 -12.47586305 207.51153543 C-12.48851948 190.34374076 -12.5217443 173.17604959 -12.56340413 156.00830332 C-12.6057938 138.39586871 -12.62938855 120.78348712 -12.63461745 103.17100161 C-12.63803511 93.276867 -12.6498318 83.38289408 -12.68272018 73.48880959 C-12.71068123 65.06304275 -12.72173747 56.63747072 -12.71052472 48.21166108 C-12.70532776 43.91111425 -12.70829162 39.61097563 -12.73299026 35.31048775 C-12.75540923 31.37413369 -12.75480091 27.43848277 -12.73578639 23.502117 C-12.73297596 22.07741008 -12.73864279 20.65265624 -12.75359933 19.22802506 C-12.87161408 7.25575573 -12.87161408 7.25575573 -9.77300453 3.31594372 C-6.46402474 0.59894358 -4.15008949 0.0169535 0 0 Z " fill="#000000" transform="translate(210.12350463867188,143.85955810546875)"/>
<path d="M0 0 C0.92597488 -0.00511093 1.85194977 -0.01022186 2.8059845 -0.01548767 C5.85648117 -0.02934883 8.90675104 -0.02842958 11.95727539 -0.02612305 C14.08427514 -0.03001172 16.21127412 -0.03434674 18.33827209 -0.03910828 C22.79259765 -0.04656289 27.24684393 -0.04628456 31.70117188 -0.04101562 C37.40185671 -0.03522028 43.10221672 -0.05215742 48.80284786 -0.0753603 C53.19440093 -0.09010996 57.58587597 -0.09096768 61.97744942 -0.08785057 C64.0789409 -0.0883631 66.18043683 -0.09358802 68.28190422 -0.10366249 C71.22330568 -0.11603409 74.16407696 -0.10923081 77.10546875 -0.09765625 C77.96854645 -0.10529999 78.83162415 -0.11294373 79.72085571 -0.12081909 C85.67599977 -0.06916743 90.76616074 0.57336967 95.28693485 4.85634232 C97.22403123 8.37721586 97.03105919 11.77824155 96.99838257 15.69444275 C97.00306254 16.55187862 97.00774251 17.40931448 97.0125643 18.29273325 C97.02454702 21.17089796 97.01504423 24.04858941 97.00561523 26.92675781 C97.00967951 28.98817727 97.01502057 31.04959455 97.02154541 33.11100769 C97.03524279 38.71428778 97.0299101 44.31740248 97.02040815 49.92068553 C97.0128231 55.78001911 97.01985405 61.63933836 97.02456665 67.49867249 C97.030028 77.34028673 97.02282308 87.18183349 97.00854492 97.0234375 C96.99222225 108.40580658 96.99750266 119.78801442 97.01402414 131.17037958 C97.02763359 140.93692593 97.02956116 150.70342371 97.02170813 160.46997648 C97.01702807 166.3057196 97.01641586 172.14138691 97.0263176 177.97712517 C97.03497691 183.46415702 97.02898415 188.95098083 97.01163483 194.43799019 C97.00766427 196.45319905 97.00881372 198.46842538 97.01542282 200.48362732 C97.02360595 203.23195213 97.01335573 205.97960797 96.99838257 208.72789001 C97.00507473 209.52769647 97.0117669 210.32750293 97.01866186 211.15154594 C96.97048899 215.70206655 96.47787321 218.67982599 93.61743164 222.2746582 C90.52062679 224.33919477 89.84937793 224.52728542 86.34207153 224.54881287 C85.03411621 224.56377556 85.03411621 224.56377556 83.69973755 224.57904053 C82.26898392 224.58003754 82.26898392 224.58003754 80.80932617 224.58105469 C79.80254822 224.5893782 78.79577026 224.59770172 77.75848389 224.60627747 C74.42236491 224.63042029 71.08644128 224.63915473 67.75024414 224.64575195 C65.43480367 224.65471478 63.11936381 224.66383655 60.80392456 224.67311096 C55.94666128 224.689615 51.08946705 224.6973037 46.23217773 224.70019531 C40.00530833 224.70558153 33.77908691 224.74326616 27.55240059 224.78893948 C22.76888656 224.81866752 17.98552939 224.82591795 13.201931 224.82692146 C10.90617784 224.83113194 8.61042455 224.84359915 6.31476212 224.86443901 C3.10413072 224.89126502 -0.10498796 224.88655343 -3.31567383 224.87402344 C-4.26546112 224.88885773 -5.21524841 224.90369202 -6.19381714 224.91897583 C-10.82994966 224.86739763 -12.7303852 224.80100166 -16.44924927 221.79969788 C-17.40624222 220.54980324 -17.40624222 220.54980324 -18.38256836 219.2746582 C-18.71256836 218.9446582 -19.04256836 218.6146582 -19.38256836 218.2746582 C-19.48930083 215.56752526 -19.53035219 212.88559645 -19.52973938 210.17767334 C-19.53341607 209.3187172 -19.53709276 208.45976105 -19.54088086 207.57477593 C-19.55196391 204.67362402 -19.55576933 201.77250786 -19.55957031 198.87133789 C-19.5658315 196.80051051 -19.57247798 194.72968426 -19.57948303 192.65885925 C-19.59692541 187.01620464 -19.60745366 181.37355852 -19.61568856 175.7308836 C-19.62083197 172.20861093 -19.626908 168.68634092 -19.63319969 165.16407013 C-19.65226099 154.15270381 -19.66648999 143.14134424 -19.67481166 132.12996459 C-19.68458782 119.402612 -19.71091339 106.67543316 -19.75131255 93.94814181 C-19.78143588 84.12222097 -19.79627695 74.29635002 -19.79959267 64.47038388 C-19.80194756 58.59653864 -19.81096476 52.72287882 -19.83605385 46.84908295 C-19.85927328 41.32350049 -19.86359247 35.79822633 -19.85329247 30.2726078 C-19.85279549 28.24287455 -19.85916318 26.21312644 -19.87284851 24.18343925 C-19.89047174 21.41511266 -19.88350856 18.64790389 -19.87031555 15.87957764 C-19.8812848 15.07383387 -19.89225404 14.26809011 -19.90355569 13.43792987 C-19.86050734 9.70377368 -19.52895046 7.50686179 -17.5185585 4.3178091 C-12.554005 -0.43096372 -6.45897688 -0.01849676 0 0 Z " fill="#000000" transform="translate(32.382568359375,287.725341796875)"/>
</svg>
