<?xml version="1.0" encoding="UTF-8"?>
<svg version="1.1" xmlns="http://www.w3.org/2000/svg" width="512" height="512">
<path d="M0 0 C0.97373062 -0.00287018 1.94746124 -0.00574036 2.95069885 -0.00869751 C5.00400374 -0.01073322 7.05732824 -0.00523793 9.1105957 0.00732422 C12.2401911 0.02336719 15.36849171 0.00746739 18.49804688 -0.01171875 C20.49870075 -0.00973589 22.49935382 -0.00589134 24.5 0 C25.42936874 -0.00607269 26.35873749 -0.01214539 27.31626892 -0.0184021 C33.58918904 0.04892722 39.03898374 0.62101499 43.69140625 5.2734375 C45.96535359 9.56867137 45.960864 14.09996105 46.0625 18.87890625 C46.09537109 20.12607422 46.12824219 21.37324219 46.16210938 22.65820312 C46.22284899 25.25708316 46.28019318 27.85604499 46.33398438 30.45507812 C46.34592377 41.12876745 46.34592377 41.12876745 48.81640625 51.3984375 C51.77755736 54.03911933 54.20180139 54.96039222 58.06640625 55.7734375 C59.79117188 56.14855469 59.79117188 56.14855469 61.55078125 56.53125 C64.78522716 57.19919923 68.02673764 57.82710738 71.26953125 58.453125 C116.24310354 67.26017251 116.24310354 67.26017251 127.1875 78.92578125 C132.03521656 89.26060145 127.10968298 100.54642119 123.90917969 110.76879883 C123.06857283 113.45401661 122.24919479 116.14498407 121.43359375 118.83789062 C114.61057502 141.19417301 114.61057502 141.19417301 110.62890625 146.0859375 C106.03837916 148.22818348 101.35298224 147.25640118 96.62573242 145.6574707 C94.39346146 144.72368868 92.19882982 143.72930506 90.00390625 142.7109375 C68.80223109 133.38799186 48.05200681 129.18214103 24.94140625 129.0234375 C23.64614014 129.00941895 22.35087402 128.99540039 21.01635742 128.98095703 C7.58920262 129.04794252 -5.9856593 131.01128778 -16.31640625 140.3203125 C-23.16779868 147.71637629 -24.81813017 153.8877258 -24.60546875 163.8828125 C-23.59171365 172.33077166 -18.76750036 179.42960675 -12.29296875 184.79296875 C-11.17858369 185.60641728 -10.05864497 186.41230596 -8.93359375 187.2109375 C-8.16015625 187.79198242 -8.16015625 187.79198242 -7.37109375 188.38476562 C4.86180747 197.15261341 19.6365791 202.59740555 33.40310669 208.43737793 C46.82022867 214.13715921 60.22472402 219.86095599 73.37890625 226.1484375 C74.30823975 226.58833008 75.23757324 227.02822266 76.19506836 227.48144531 C105.91375872 241.93037242 129.22121353 266.22484875 140.2890625 297.4453125 C149.92829679 326.00714729 147.6289645 356.22903294 134.89013672 383.37207031 C120.22700194 412.76050473 94.25891404 432.5253295 63.75390625 443.0859375 C62.67061035 443.44252441 61.58731445 443.79911133 60.47119141 444.16650391 C54.59445361 446.15110716 50.16677014 447.9100821 45.81640625 452.3984375 C43.71119281 456.89593894 43.75078782 460.74806705 43.79296875 465.68359375 C43.82407222 473.42585047 43.7447884 481.15820313 43.56640625 488.8984375 C43.55222656 490.21585937 43.53804687 491.53328125 43.5234375 492.890625 C43.49121094 494.16164063 43.45898438 495.43265625 43.42578125 496.7421875 C43.40483398 497.87849609 43.38388672 499.01480469 43.36230469 500.18554688 C42.49935781 505.26442922 40.40397493 508.2631099 36.23242188 511.24633789 C31.4954446 512.84395051 27.1286735 512.84694089 22.16015625 512.83203125 C21.13966187 512.8372731 20.11916748 512.84251495 19.06774902 512.84791565 C16.91610624 512.85432204 14.76442837 512.85301682 12.61279297 512.84448242 C9.32716397 512.83596539 6.04327028 512.86476577 2.7578125 512.89648438 C0.66276094 512.89809642 -1.4322937 512.8975188 -3.52734375 512.89453125 C-4.50562134 512.90576523 -5.48389893 512.91699921 -6.49182129 512.92857361 C-12.37528338 512.86865708 -15.6859538 512.28272212 -20.18359375 508.3984375 C-24.76637129 502.55144547 -24.32877521 495.1273858 -24.4296875 488.015625 C-24.46259799 486.42056685 -24.49581006 484.8255149 -24.52929688 483.23046875 C-24.57679463 480.74434252 -24.62133246 478.2582463 -24.66040039 475.77197266 C-24.7001854 473.35294885 -24.75167403 470.93439008 -24.8046875 468.515625 C-24.81310165 467.77593475 -24.82151581 467.03624451 -24.83018494 466.2741394 C-24.92587586 462.26195377 -25.15655992 458.9127818 -27.18359375 455.3984375 C-33.12602733 451.62942244 -41.95357421 451.21612336 -48.73965454 450.00909424 C-104.16282859 440.0467983 -104.16282859 440.0467983 -119.18359375 423.1484375 C-122.60642266 413.735658 -118.69196637 403.58136111 -116.05859375 394.3984375 C-115.64315143 392.92166286 -115.22811453 391.44477411 -114.81347656 389.96777344 C-113.62794423 385.77075242 -112.41123836 381.58330671 -111.18359375 377.3984375 C-110.87518555 376.34076172 -110.56677734 375.28308594 -110.24902344 374.19335938 C-109.50155918 371.66989168 -108.7284688 369.15731274 -107.93359375 366.6484375 C-107.72460449 365.96007812 -107.51561523 365.27171875 -107.30029297 364.5625 C-105.80868735 360.08422768 -104.02377883 357.17779797 -100.18359375 354.3984375 C-92.81966383 353.11809979 -87.54152045 356.21421203 -81.05859375 359.4609375 C-49.63565566 374.46481281 -8.40064563 386.04449415 25.81640625 374.3984375 C37.82643254 369.64646587 45.16225975 363.89593103 50.6875 352.16796875 C54.26691359 343.38663922 53.622013 334.67312271 50.0703125 325.9609375 C38.50370218 302.3232541 7.52090738 293.51900837 -15.11096191 284.26071167 C-60.76293773 265.58137298 -60.76293773 265.58137298 -79.18359375 249.3984375 C-79.99828125 248.70363281 -80.81296875 248.00882813 -81.65234375 247.29296875 C-101.23257458 230.22069959 -114.80201444 208.69247921 -117.18359375 182.3984375 C-118.93048401 150.55570291 -111.43401131 120.92850977 -89.80859375 96.7421875 C-71.57242482 77.80462746 -46.8316406 66.61445312 -22.18359375 58.3984375 C-20.12078417 53.08988218 -19.89031667 48.14496794 -19.875 42.5 C-19.84984065 40.78645492 -19.82444262 39.07291333 -19.79882812 37.359375 C-19.7701483 34.69141547 -19.74609431 32.02351638 -19.72729492 29.35546875 C-19.70546933 26.75750329 -19.6660259 24.16022333 -19.625 21.5625 C-19.62488419 20.77783356 -19.62476837 19.99316711 -19.62464905 19.1847229 C-19.52669301 13.62160399 -18.85352084 8.36115603 -16.18359375 3.3984375 C-11.37424841 -0.44296323 -5.89366396 -0.03842676 0 0 Z " fill="#FFFFFF" transform="translate(243.18359375,-0.3984375)"/>
</svg>
